<svg id="grafik" xmlns="http://www.w3.org/2000/svg" viewBox="0 0 194.8252 194.8252"><defs><style>.cls-1{fill:#2e2014;}</style></defs><title>STN20001_material_website_dr</title><path class="cls-1" d="M74.30075,82.7849h45.19976c.03292.00137.06584.00137.09876.00137a2.33753,2.33753,0,0,0,2.32912-2.23585,2.37266,2.37266,0,0,0-2.3977-2.42651H74.27057a2.33208,2.33208,0,0,0,.03018,4.661Zm45.208-3.958h0v0Z"/><path class="cls-1" d="M74.30075,95.82551h45.19976c.03292.00137.06584.00137.09876.00137a2.33872,2.33872,0,0,0,2.32912-2.23722,2.37154,2.37154,0,0,0-2.3977-2.42514H74.33092A2.34414,2.34414,0,0,0,71.903,93.40037,2.36994,2.36994,0,0,0,74.30075,95.82551Zm45.208-3.95834h0v0Z"/><path class="cls-1" d="M74.30075,108.86886h45.19976c.03292.00137.06584.00137.09876.00137a2.33872,2.33872,0,0,0,2.32912-2.23722,2.36994,2.36994,0,0,0-2.3977-2.42514H74.33092a2.332,2.332,0,1,0-.03017,4.661Zm45.208-3.95851h0v0Z"/><path class="cls-1" d="M74.30075,121.91221h45.19976c.03292.00137.06584.00137.09876.00137a2.33872,2.33872,0,0,0,2.32912-2.23722,2.36992,2.36992,0,0,0-2.3977-2.42513H74.33092A2.34858,2.34858,0,0,0,71.903,119.4857,2.37265,2.37265,0,0,0,74.30075,121.91221Z"/><path class="cls-1" d="M74.12243,134.95008l45.37808.00137c.03292.00137.06858.00137.1015.00137a2.3311,2.3311,0,0,0,.107-4.65961l-45.37808-.00138a2.33146,2.33146,0,0,0-.20849,4.65825Z"/><path class="cls-1" d="M137.74666,49.468a2.3125,2.3125,0,0,0-1.64876-.68584H57.857a2.33607,2.33607,0,0,0-2.33187,2.33187v94.54887A2.33607,2.33607,0,0,0,57.857,147.9948h78.23542a2.33606,2.33606,0,0,0,2.33186-2.33186V51.11681A2.306,2.306,0,0,0,137.74666,49.468ZM68.76475,63.02783V58.76328h4.252v4.26455Zm16.297.0095V58.75377h4.252v4.28356Zm19.563,0V58.75377h4.252v4.28356Zm16.3113-.01579v-4.252h4.22061v4.252ZM68.5671,55.30319H65.31072V66.48105h11.182V55.30319H73.2226v-1.86H84.86272v1.86H81.61731V66.48105h11.182V55.30319H89.54565v-1.86h14.88827v1.86h-3.24541V66.48105h11.18472V55.30319h-3.25912v-1.86h11.63738v1.86h-3.25638V66.48105h11.182V55.30319H125.4207v-1.86h8.33984v89.892H60.18611v-89.892h8.381Zm67.52531-5.81851h0v0Z"/></svg>