<svg id="grafik" xmlns="http://www.w3.org/2000/svg" viewBox="0 0 194.8252 194.8252"><defs><style>.cls-1{fill:#2e2014;}</style></defs><title>STN20001_material_website_dr</title><g id="Gruppe_17" data-name="Gruppe 17"><path id="Pfad_24" data-name="Pfad 24" class="cls-1" d="M122.63828,75.24376a40.439,40.439,0,0,0-26.15813-8.032,2.36455,2.36455,0,0,0,.31224,4.71878,35.62487,35.62487,0,0,1,23.0116,7.09524,2.3619,2.3619,0,0,0,2.83428-3.779Z"/><path id="Pfad_25" data-name="Pfad 25" class="cls-1" d="M155.74,86.58992a2.3614,2.3614,0,1,0-4.71878-.1948q-.004.09736,0,.1948a7.00089,7.00089,0,0,1-4.91959,6.76393c-.71785-9.90945-5.63041-19.07594-14.0188-26.01657-8.96268-7.40748-20.8751-11.47768-33.5616-11.47768a63.67225,63.67225,0,0,0-10.57108.65661A19.01468,19.01468,0,0,0,62.7559,50.85267a2.36642,2.36642,0,0,0,.009,4.09028,14.22361,14.22361,0,0,1,6.73581,8.87031c-9.56909,6.292-16.28583,15.833-18.35506,26.09186H43.67294a2.36241,2.36241,0,0,0-2.3614,2.3624v18.91229a2.36241,2.36241,0,0,0,2.3614,2.36341H55.4197c4.6475,9.41848,12.91341,16.17237,23.72042,19.76266v11.92949a2.3614,2.3614,0,0,0,4.71879,0V134.63618a65.04587,65.04587,0,0,0,14.65835,1.60639,55.4928,55.4928,0,0,0,14.65835-1.95578v10.94858a2.3614,2.3614,0,0,0,4.71878,0V132.74666c15.86315-5.99888,27.17819-19.12011,28.2123-34.53749A11.66643,11.66643,0,0,0,155.74,86.58992ZM98.52127,131.51475c-19.06389,0-33.44212-7.76089-39.45-21.28472a2.36241,2.36241,0,0,0-2.15357-1.4056H46.03032V94.62892h7.09424a2.36942,2.36942,0,0,0,2.34333-2.03108c1.43572-10.12731,8.1143-19.70645,17.87114-25.62a2.35941,2.35941,0,0,0,1.11444-2.35237,18.837,18.837,0,0,0-5.79106-11.14436,14.32905,14.32905,0,0,1,16.10712,6.82718,2.35939,2.35939,0,0,0,2.56922,1.14355,51.05593,51.05593,0,0,1,11.18452-.86946c23.68328,0,42.945,15.8521,42.945,35.33063C141.47526,115.54418,122.20455,131.51475,98.52127,131.51475Z"/><path id="Pfad_26" data-name="Pfad 26" class="cls-1" d="M72.04187,82.339a6.14045,6.14045,0,1,0,6.14044,6.14045A6.14045,6.14045,0,0,0,72.04187,82.339Zm0,7.56712a1.41664,1.41664,0,1,1,1.41664-1.41664h0A1.42166,1.42166,0,0,1,72.04187,89.90612Z"/></g></svg>