<svg id="grafik" xmlns="http://www.w3.org/2000/svg" viewBox="0 0 194.8252 194.8252"><defs><style>.cls-1{fill:#2e2014;}</style></defs><title>STN20001_material_website_dr</title><g id="Gruppe_2" data-name="Gruppe 2"><g id="Gruppe_1" data-name="Gruppe 1"><path id="Pfad_3" data-name="Pfad 3" class="cls-1" d="M147.00215,97.609V75.26406a30.41924,30.41924,0,0,0-.43543-5.0874,26.85354,26.85354,0,0,0-9.17718-15.98427,26.29685,26.29685,0,0,0-17.37876-6.61418c-14.81576-.08268-29.6205,0-44.44178,0a26.23071,26.23071,0,0,0-13.45985,3.4559,26.589,26.589,0,0,0-14.204,23.7394c-.20394,14.88191-.06614,29.76381-.03858,44.60714a25.459,25.459,0,0,0,3.2685,12.77088,26.611,26.611,0,0,0,23.9268,14.49608c14.88191.20394,29.81342.05512,44.7284.03858a26.28521,26.28521,0,0,0,6.57559-.86535,27.61023,27.61023,0,0,0,20.59766-26.28034C147.08483,112.23733,147.00215,104.91764,147.00215,97.609Zm-22.04727-.474a27.55908,27.55908,0,1,1-27.592-27.52608q.0523-.00008.10461.00007a27.55908,27.55908,0,0,1,27.504,27.49846m11.02363-33.07091a5.51182,5.51182,0,1,1-5.51182-5.51181,5.51181,5.51181,0,0,1,5.51182,5.51181M113.94778,97.1074a16.53545,16.53545,0,1,0-16.53545,16.53545A16.53545,16.53545,0,0,0,113.94778,97.1074"/></g></g></svg>