<svg id="grafik" xmlns="http://www.w3.org/2000/svg" viewBox="0 0 194.8252 194.8252"><defs><style>.cls-1{fill:#2e2014;}</style></defs><title>STN20001_material_website_dr</title><g id="Gruppe_5" data-name="Gruppe 5"><g id="Gruppe_4" data-name="Gruppe 4"><path id="Pfad_5" data-name="Pfad 5" class="cls-1" d="M142.14654,48.06772H53.88591a5.47872,5.47872,0,0,0-5.46771,5.46771v88.26063a5.51182,5.51182,0,0,0,5.46771,5.48426h47.51181V108.863H88.467V93.87087h12.93071V82.84725a18.05115,18.05115,0,0,1,19.29134-19.7874,104.432,104.432,0,0,1,11.57481.60078V77.02126h-7.948c-6.21181,0-7.40237,2.94882-7.40237,7.28661v9.563h14.78268l-1.93465,14.96457H116.87489v38.44488h25.27165a5.51181,5.51181,0,0,0,5.48425-5.48426V53.53543a5.47873,5.47873,0,0,0-5.48425-5.46771"/></g></g></svg>