<svg id="grafik" xmlns="http://www.w3.org/2000/svg" viewBox="0 0 326.57616 70.26578"><defs><style>.cls-1{fill:#fff;}</style></defs><title>STN20001_material_website_dr</title><path class="cls-1" d="M27.53038,23.75362a2.22375,2.22375,0,0,0-1.66407-1.07276,1.09028,1.09028,0,0,0-1.16894,1.04053c.0166.88037,1.07226,1.28076,1.61719,1.53662a6.48872,6.48872,0,0,1,1.84082,1.02441,2.95168,2.95168,0,0,1,1.08789,2.40088,3.62121,3.62121,0,0,1-1.88867,3.16944,4.56768,4.56768,0,0,1-2.06446.48047,6.06353,6.06353,0,0,1-1.90527-.32032,5.437,5.437,0,0,1-1.80859-1.28076l1.63281-1.79248a2.98842,2.98842,0,0,0,2.09668,1.3125,1.33316,1.33316,0,0,0,1.377-1.3125,1.11711,1.11711,0,0,0-.19238-.64014,3.50532,3.50532,0,0,0-1.47266-.96044,9.78022,9.78022,0,0,1-1.63281-.97657,3.18335,3.18335,0,0,1-1.248-2.52881,3.24863,3.24863,0,0,1,.57617-1.85693,3.702,3.702,0,0,1,3.1211-1.50439,4.87246,4.87246,0,0,1,1.85644.3999,4.64231,4.64231,0,0,1,1.40918,1.1206Z"/><path class="cls-1" d="M41.86729,20.77608v2.17724h-2.417v9.12354H37.00206v-9.0918h-2.417v-2.209Z"/><path class="cls-1" d="M51.04991,32.07686H48.58506V20.77608h2.46485Z"/><path class="cls-1" d="M65.78721,20.77608v2.145H61.68956v2.209h4.09765v2.209H61.68956v4.73779H59.22471V20.77608Z"/><path class="cls-1" d="M79.339,20.77608v2.17724H76.922v9.12354H74.47276v-9.0918h-2.417v-2.209Z"/><path class="cls-1" d="M88.48838,20.77608v6.979a2.45536,2.45536,0,0,0,.4004,1.63281,2.24486,2.24486,0,0,0,1.82519.78418,1.83709,1.83709,0,0,0,1.98438-1.40869,3.8397,3.8397,0,0,0,.0957-.92822V20.77608h2.40137V27.0666a6.06164,6.06164,0,0,1-.79981,3.56983,4.52343,4.52343,0,0,1-3.77832,1.74463,4.317,4.317,0,0,1-4.22558-2.481,5.73283,5.73283,0,0,1-.30372-2.06494V20.77608Z"/><path class="cls-1" d="M105.6085,20.77608l3.79395,5.39453a17.94555,17.94555,0,0,1,1.66406,2.81689c-.06348-.688-.12793-1.37646-.14355-2.06494-.03223-.51221-.03223-1.02441-.04786-1.53662l-.04882-4.60986h2.30566V32.07686h-2.19336l-3.9375-5.61817c-.35254-.49609-.7041-1.0083-1.02441-1.5205-.17579-.28858-.35254-.59229-.52832-.88037.03222.46386.08007.92822.0957,1.37646.0166.416.03223.81641.04883,1.23242l.11133,5.41016h-2.32032V20.77608Z"/><path class="cls-1" d="M129.08311,24.21748a2.64213,2.64213,0,0,0-.416-.49609A3.67666,3.67666,0,0,0,126.09,22.7292a3.25423,3.25423,0,0,0-2.16114.76807,3.59376,3.59376,0,0,0-1.20019,2.84912,4.03339,4.03339,0,0,0,.624,2.30518,3.28964,3.28964,0,0,0,2.80176,1.47265,3.06946,3.06946,0,0,0,2.49707-1.1206,4.952,4.952,0,0,0,.47949-.84815h-3.00879V26.04219l5.666.01611a6.57794,6.57794,0,0,1-1.10449,4.01758,5.65946,5.65946,0,0,1-4.626,2.24121,7.86567,7.86567,0,0,1-1.376-.144,5.236,5.236,0,0,1-3.36132-2.24121,5.91477,5.91477,0,0,1-1.00879-3.52149,6.203,6.203,0,0,1,.16015-1.55224,6.02754,6.02754,0,0,1,1.29688-2.561,7.65322,7.65322,0,0,1,.832-.75244,5.76058,5.76058,0,0,1,3.52148-1.07226,5.85174,5.85174,0,0,1,3.40918.97607,5.50419,5.50419,0,0,1,1.02442.88037,4.6475,4.6475,0,0,1,.52832.72022Z"/><path class="cls-1" d="M155.35362,20.77608v2.17724h-2.417v9.12354h-2.44825v-9.0918h-2.417v-2.209Z"/><path class="cls-1" d="M164.53624,32.07686h-2.46485V20.77608h2.46485Z"/><path class="cls-1" d="M179.11338,20.77608V22.969h-3.96972v2.24121h3.874V27.403h-3.874V29.82h3.9541v2.25684h-6.40332V20.77608Z"/><path class="cls-1" d="M189.99229,20.77608c.30371,0,.5918,0,.89649.01611a3.55564,3.55564,0,0,1,3.12109,1.44092,3.49579,3.49579,0,0,1,.52832,1.88867,3.18116,3.18116,0,0,1-1.29688,2.70508,3.26177,3.26177,0,0,1-1.248.44824l3.26465,4.80176h-2.91309l-2.99316-4.77v4.77H186.9669V20.77608Zm-.624,4.94629h.87988c.65625-.01612,1.3125-.064,1.68066-.70459a1.56551,1.56551,0,0,0,.208-.8003,1.41028,1.41028,0,0,0-.31933-.92822,2.04869,2.04869,0,0,0-1.61719-.54394h-.832Z"/><path class="cls-1" d="M208.31358,20.77608V22.969h-3.96973v2.24121h3.874V27.403h-3.874V29.82H208.298v2.25684h-6.40235V20.77608Z"/><path class="cls-1" d="M227.879,32.07686h-2.46484V20.77608H227.879Z"/><path class="cls-1" d="M238.296,20.77608l3.793,5.39453a17.89208,17.89208,0,0,1,1.665,2.81689c-.06445-.688-.12793-1.37646-.14453-2.06494-.03125-.51221-.03125-1.02441-.04785-1.53662l-.04785-4.60986h2.30468V32.07686h-2.19238l-3.9375-5.61817c-.35254-.49609-.7041-1.0083-1.02441-1.5205-.17676-.28858-.35254-.59229-.52832-.88037.03222.46386.08007.92822.0957,1.37646.0166.416.03223.81641.04785,1.23242l.11231,5.41016h-2.32129V20.77608Z"/><path class="cls-1" d="M265.49522,20.77608l3.793,5.39453a17.89289,17.89289,0,0,1,1.665,2.81689c-.06445-.688-.12793-1.37646-.14453-2.06494-.03125-.51221-.03125-1.02441-.04785-1.53662l-.04786-4.60986h2.30469V32.07686H270.8253l-3.9375-5.61817c-.35254-.49609-.7041-1.0083-1.02442-1.5205-.17675-.28858-.35253-.59229-.52832-.88037.03223.46386.08008.92822.09571,1.37646.0166.416.03222.81641.04785,1.23242l.1123,5.41016h-2.32129V20.77608Z"/><path class="cls-1" d="M287.64171,20.64815a5.95657,5.95657,0,0,1,3.23339,1.9209,6.15289,6.15289,0,0,1,1.36036,3.9375,6.27514,6.27514,0,0,1-.48047,2.44921,5.60009,5.60009,0,0,1-5.52246,3.40918,6.44875,6.44875,0,0,1-3.77735-1.13623,5.5968,5.5968,0,0,1-2.25683-4.64209,6.81782,6.81782,0,0,1,.48046-2.54492,5.75623,5.75623,0,0,1,5.49024-3.55371A7.1214,7.1214,0,0,1,287.64171,20.64815Zm-3.61719,2.94531a3.58653,3.58653,0,0,0-1.377,2.86523,3.67293,3.67293,0,0,0,.28809,1.45655,3.53612,3.53612,0,0,0,3.42578,2.145,3.11087,3.11087,0,0,0,2.11231-.70459,3.85606,3.85606,0,0,0,.44824-5.29785,3.4752,3.4752,0,0,0-2.67285-1.2168A3.64582,3.64582,0,0,0,284.02452,23.59346Z"/><path class="cls-1" d="M304.95323,20.77608v2.17724h-2.417v9.12354H300.087v-9.0918H297.67v-2.209Z"/><path class="cls-1" d="M23.98741,49.4294l-1.2041,2.64746h-1.415l5.043-11.00977,5.043,11.00977h-1.415L28.83409,49.4294Zm2.42383-5.477-1.877,4.27246h3.75391Z"/><path class="cls-1" d="M37.1046,41.01094l7.92773,8.30664V41.51533h1.31738V52.51094L38.421,44.20479v7.87207H37.1046Z"/><path class="cls-1" d="M54.39561,52.07686H53.07823V41.51533h1.31738Z"/><path class="cls-1" d="M63.06163,45.10127h-.02832l-1.23243,6.97559H60.44249l2.15722-11.00977,3.62793,8.32031,3.62793-8.32031L72.0128,52.07686H70.65342L69.421,45.10127h-.02832l-3.165,7.19971Z"/><path class="cls-1" d="M79.58116,49.4294l-1.2041,2.64746H76.962l5.043-11.00977,5.043,11.00977h-1.415L84.42784,49.4294Zm2.42383-5.477-1.877,4.27246h3.75391Z"/><path class="cls-1" d="M94.14073,50.87227h3.208v1.20459H92.82432V41.51533h1.31641Z"/><path class="cls-1" d="M118.29307,45.77364V41.51533h1.31739V52.07686h-1.31739v-5.0708h-5.02832v5.0708h-1.3164V41.51533h1.3164v4.25831Z"/><path class="cls-1" d="M126.41026,41.51533h5.67285v1.20459h-4.35644v2.95557h4.23046v1.20459h-4.23046v3.99219h4.35644v1.20459h-5.67285Z"/><path class="cls-1" d="M139.92,50.87227h3.208v1.20459h-4.52441V41.51533H139.92Z"/><path class="cls-1" d="M150.21006,52.07686h-1.3164V41.51533h1.51269c3.25,0,4.25879,1.12061,4.25879,3.05323,0,2.22754-1.69531,3.082-3.69824,3.082h-.75684Zm0-5.603h.4209c1.34473,0,2.80078-.252,2.80078-1.9331,0-1.65284-1.56836-1.84913-2.87109-1.84913h-.35059Z"/></svg>